<svg id="Layer_1" data-name="Layer 1" xmlns="http://www.w3.org/2000/svg" viewBox="0 0 289.07 180.86"><defs><style>.cls-1{fill:#fff;}.cls-2{fill:#e5d31c;}</style></defs><title>logolight-01</title><path class="cls-1" d="M17.8,184.23a3,3,0,0,1-.91,2.19,3.75,3.75,0,0,1-2.47,1,1.06,1.06,0,0,0-.2.56c0,.43.31.65.91.65A3.86,3.86,0,0,0,18,187.23,4.56,4.56,0,0,0,19.3,184a4,4,0,0,0-1.4-3.25,12.17,12.17,0,0,0-4.89-2q-6.59-1.52-6.59-6.45a7,7,0,0,1,3.8-6.21q3.81-2.29,10.29-2.29a17.54,17.54,0,0,1,8.31,1.63,5,5,0,0,1,3,4.56,3.78,3.78,0,0,1-1.56,3.19,7,7,0,0,1-4.33,1.19,7.77,7.77,0,0,1-4.43-1.16,3.51,3.51,0,0,1-1.71-3,3,3,0,0,1,.9-2.19,3.78,3.78,0,0,1,2.47-1,1.06,1.06,0,0,0,.2-.55q0-.66-.9-.66a3.86,3.86,0,0,0-2.9,1.39,4.56,4.56,0,0,0-1.28,3.19,3.93,3.93,0,0,0,1.53,3.27,12.75,12.75,0,0,0,5.11,2,13.78,13.78,0,0,1,6,2.4,5.37,5.37,0,0,1,1.81,4.35,6.7,6.7,0,0,1-3.55,6.09q-3.54,2.12-10.19,2.11a22.66,22.66,0,0,1-9.63-1.71q-3.6-1.71-3.6-4.53a3.73,3.73,0,0,1,1.58-3.17,7.18,7.18,0,0,1,4.31-1.16,7.8,7.8,0,0,1,4.43,1.16A3.51,3.51,0,0,1,17.8,184.23Z" transform="translate(-5.77 -9.76)"/><path class="cls-1" d="M48.8,190.62q-7.09,0-10.8-3.42t-3.7-10q0-6.56,3.7-10t10.8-3.42q7.1,0,10.79,3.42t3.7,10q0,6.54-3.7,10T48.8,190.62Zm0-2.31c.6,0,.9-.46.9-1.36V167.52c0-.9-.3-1.36-.9-1.36s-.91.46-.91,1.36V187C47.89,187.85,48.19,188.31,48.8,188.31Z" transform="translate(-5.77 -9.76)"/><path class="cls-1" d="M71.59,164.45a7.8,7.8,0,0,1,4,.88,4.52,4.52,0,0,1,2,2.75,8.39,8.39,0,0,1,3.1-3.13,8.6,8.6,0,0,1,4.3-1.1,7.39,7.39,0,0,1,4,1,6.21,6.21,0,0,1,2.47,3,7.35,7.35,0,0,1,3-3,8.87,8.87,0,0,1,4.35-1.06,6.7,6.7,0,0,1,5.36,2.11c1.23,1.41,1.84,3.48,1.84,6.19v16.26a1.69,1.69,0,0,1-.38,1.23,1.87,1.87,0,0,1-1.33.38H95.7a1.85,1.85,0,0,1-1.33-.38,1.69,1.69,0,0,1-.38-1.23V171.1a1.53,1.53,0,0,0-.25-.91.82.82,0,0,0-.7-.35.93.93,0,0,0-.86.4v18.17a1.69,1.69,0,0,1-.38,1.23,1.85,1.85,0,0,1-1.33.38H81.91a1.87,1.87,0,0,1-1.33-.38,1.69,1.69,0,0,1-.38-1.23V171.1a1.53,1.53,0,0,0-.25-.91.82.82,0,0,0-.7-.35.93.93,0,0,0-.86.4v18.17a1.69,1.69,0,0,1-.38,1.23,1.85,1.85,0,0,1-1.33.38H68.12a1.87,1.87,0,0,1-1.33-.38,1.69,1.69,0,0,1-.38-1.23V170.64a5.85,5.85,0,0,0-.5-2.69,4.93,4.93,0,0,0-1.86-1.74,1.24,1.24,0,0,1-.43-.32.64.64,0,0,1-.08-.33V165c0-.33.21-.5.61-.5Z" transform="translate(-5.77 -9.76)"/><path class="cls-1" d="M120.56,178.39c0,.78.66,1.49,2,2.14a9.56,9.56,0,0,0,4.38,1,10.34,10.34,0,0,0,7.84-3.22,3.47,3.47,0,0,1,.43-.37.67.67,0,0,1,.38-.08h.61a.47.47,0,0,1,.47.25,2.14,2.14,0,0,1,.13.91,10.45,10.45,0,0,1-1.69,5.76A12.1,12.1,0,0,1,130.3,189a14.68,14.68,0,0,1-6.92,1.61A16,16,0,0,1,116,189a13,13,0,0,1-5.2-4.73,12.74,12.74,0,0,1-1.94-7,13.11,13.11,0,0,1,1.81-6.9,12.72,12.72,0,0,1,5.16-4.76,16.85,16.85,0,0,1,7.82-1.73,16.41,16.41,0,0,1,6.07,1.06,9.89,9.89,0,0,1,4.25,3,7,7,0,0,1,1.56,4.53,7,7,0,0,1-2.36,5.4,8.59,8.59,0,0,1-6,2.14,7.7,7.7,0,0,1-5.89-2.41.7.7,0,0,0-.53.23A.78.78,0,0,0,120.56,178.39Zm1.51-3.47a1,1,0,0,0,.81.4c.6,0,.9-.33.9-1v-7.15c0-.67-.3-1-.9-1a1,1,0,0,0-.81.41Z" transform="translate(-5.77 -9.76)"/><path class="cls-1" d="M166.61,169a7.19,7.19,0,0,0-1.26-2.62,2.45,2.45,0,0,1-.45-.55,1.06,1.06,0,0,1-.1-.45V165c0-.33.2-.5.61-.5h13.23c1.21,0,1.81.44,1.81,1.31a35.06,35.06,0,0,1-1.73,7.58q-1.74,5.76-3.95,11.29a21.6,21.6,0,0,1-1.74,3.73,3.4,3.4,0,0,1-1.51,1.33A7.09,7.09,0,0,1,169,190h-5.89a4.92,4.92,0,0,1-2.69-.66,4.1,4.1,0,0,1-1.59-2.11,4.18,4.18,0,0,1-1.61,2.09,5.07,5.07,0,0,1-2.77.68H148.6a5,5,0,0,1-2.67-.58,4,4,0,0,1-1.46-2.09l-6.64-18.52a3.9,3.9,0,0,0-.83-1.41,8.77,8.77,0,0,0-1.59-1.21c-.33-.2-.5-.41-.5-.65V165c0-.33.2-.5.6-.5h6.34a17.85,17.85,0,0,1,5.06.53,4.91,4.91,0,0,1,2.57,1.84,15.07,15.07,0,0,1,1.78,3.87l4.83,14.6a.82.82,0,0,0,.61.25c.5,0,.75-.28.75-.86a6.42,6.42,0,0,0-.4-1.66l-4.58-14a7.19,7.19,0,0,0-1.26-2.62,2.45,2.45,0,0,1-.45-.55.93.93,0,0,1-.1-.45V165c0-.33.2-.5.6-.5H156a17.8,17.8,0,0,1,5.06.53,4.91,4.91,0,0,1,2.57,1.84,15,15,0,0,1,1.79,3.87l4.83,14.6a.8.8,0,0,0,.6.25c.5,0,.76-.28.76-.86a6.58,6.58,0,0,0-.41-1.66Z" transform="translate(-5.77 -9.76)"/><path class="cls-1" d="M182.82,160a5.71,5.71,0,0,0-.51-2.69,4.79,4.79,0,0,0-1.86-1.74,1.35,1.35,0,0,1-.43-.32.65.65,0,0,1-.07-.33v-.6q0-.51.6-.51h13a1.87,1.87,0,0,1,1.33.38,1.69,1.69,0,0,1,.38,1.23v11.48a8.27,8.27,0,0,1,6.84-3.07,7,7,0,0,1,5.54,2.16,9,9,0,0,1,1.91,6.14v16.26a1.65,1.65,0,0,1-.38,1.23,1.85,1.85,0,0,1-1.33.38h-9.06a1.85,1.85,0,0,1-1.33-.38,1.65,1.65,0,0,1-.38-1.23V171.1a1.53,1.53,0,0,0-.25-.91.83.83,0,0,0-.71-.35.91.91,0,0,0-.85.4v18.17a1.69,1.69,0,0,1-.38,1.23,1.87,1.87,0,0,1-1.33.38h-9.06a1.88,1.88,0,0,1-1.34-.38,1.69,1.69,0,0,1-.37-1.23Z" transform="translate(-5.77 -9.76)"/><path class="cls-1" d="M224.19,178.39c0,.78.65,1.49,2,2.14a9.59,9.59,0,0,0,4.38,1,10.36,10.36,0,0,0,7.85-3.22,2.42,2.42,0,0,1,.43-.37.64.64,0,0,1,.37-.08h.61a.49.49,0,0,1,.48.25,2.37,2.37,0,0,1,.12.91,10.45,10.45,0,0,1-1.69,5.76,12.1,12.1,0,0,1-4.78,4.25,14.68,14.68,0,0,1-6.92,1.61,16,16,0,0,1-7.34-1.66,13,13,0,0,1-5.21-4.73,12.83,12.83,0,0,1-1.94-7,13.11,13.11,0,0,1,1.81-6.9,12.72,12.72,0,0,1,5.16-4.76,16.86,16.86,0,0,1,7.83-1.73,16.4,16.4,0,0,1,6.06,1.06,9.83,9.83,0,0,1,4.25,3,7,7,0,0,1,1.56,4.53,7,7,0,0,1-2.36,5.4,8.59,8.59,0,0,1-6,2.14,7.7,7.7,0,0,1-5.89-2.41.7.7,0,0,0-.53.23A.77.77,0,0,0,224.19,178.39Zm1.51-3.47a1,1,0,0,0,.8.4c.61,0,.91-.33.91-1v-7.15c0-.67-.3-1-.91-1a1,1,0,0,0-.8.41Z" transform="translate(-5.77 -9.76)"/><path class="cls-1" d="M244.27,164.45q4.32,0,5.88,2.57a9.57,9.57,0,0,1,3.28-2.39,10.41,10.41,0,0,1,4.17-.78,9,9,0,0,1,6,2A6.43,6.43,0,0,1,266,171a5.35,5.35,0,0,1-1.91,4.25,7.34,7.34,0,0,1-4.94,1.63,7.5,7.5,0,0,1-4.85-1.51,4.68,4.68,0,0,1-1.89-3.82,4.18,4.18,0,0,1,1.36-3.22,4.89,4.89,0,0,1,3.47-1.26,1,1,0,0,0,.15-.5c0-.47-.35-.71-1-.71a5.13,5.13,0,0,0-3.83,1.69,5.66,5.66,0,0,0-1.61,4,5.87,5.87,0,0,0,1.13,3.55,7.78,7.78,0,0,0,3.25,2.44,1.93,1.93,0,0,1,.93.68,2.64,2.64,0,0,1,.23,1.28v8.86c0,1.07-.57,1.61-1.71,1.61H244.52a1.4,1.4,0,0,1-1.56-1.61V170.64a5.71,5.71,0,0,0-.51-2.69,4.79,4.79,0,0,0-1.86-1.74,1.49,1.49,0,0,1-.43-.32.77.77,0,0,1-.07-.33V165c0-.33.2-.5.6-.5Z" transform="translate(-5.77 -9.76)"/><path class="cls-1" d="M278.64,178.39c0,.78.65,1.49,2,2.14a9.59,9.59,0,0,0,4.38,1,10.36,10.36,0,0,0,7.85-3.22,2.42,2.42,0,0,1,.43-.37.65.65,0,0,1,.38-.08h.6a.49.49,0,0,1,.48.25,2.37,2.37,0,0,1,.12.91,10.52,10.52,0,0,1-1.68,5.76,12.23,12.23,0,0,1-4.78,4.25,14.74,14.74,0,0,1-6.92,1.61,16,16,0,0,1-7.35-1.66,13,13,0,0,1-5.21-4.73,12.83,12.83,0,0,1-1.94-7,13.21,13.21,0,0,1,1.81-6.9,12.72,12.72,0,0,1,5.16-4.76,16.86,16.86,0,0,1,7.83-1.73,16.36,16.36,0,0,1,6.06,1.06,9.92,9.92,0,0,1,4.26,3,7,7,0,0,1,1.56,4.53,6.94,6.94,0,0,1-2.37,5.4,8.57,8.57,0,0,1-6,2.14,7.71,7.71,0,0,1-5.89-2.41.71.71,0,0,0-.53.23A.77.77,0,0,0,278.64,178.39Zm1.51-3.47a1,1,0,0,0,.8.4c.61,0,.91-.33.91-1v-7.15c0-.67-.3-1-.91-1a1,1,0,0,0-.8.41Z" transform="translate(-5.77 -9.76)"/><path class="cls-2" d="M65.66,125.47c2.43-.84,4.89-1.59,7.39-2.21,9-2,18.59-2.61,27.73-.69a111.79,111.79,0,0,1,26.24,8.8c.81.38,1.6.79,2.4,1.18a183.6,183.6,0,0,1,21.45,11.64,183.6,183.6,0,0,1,21.45-11.64c.8-.39,1.59-.8,2.4-1.18a111.64,111.64,0,0,1,26.24-8.8c9.13-1.92,18.71-1.33,27.73.69,2.5.62,5,1.37,7.39,2.21a89.23,89.23,0,0,1,10.62,4.1A96.48,96.48,0,1,0,57,128.69,88.36,88.36,0,0,1,65.66,125.47Z" transform="translate(-5.77 -9.76)"/><path class="cls-1" d="M84.82,70.32l1.83,3L97,70.24a23,23,0,0,0-2.39,9.58l3.48-2.64-.65-1.89L99,76.48,109,69c.3,2.84.83,5.4.83,5.4s4.7,26.59,4.84,42.17c-2.67.75-7.36,2.43-11.3,4a113.5,113.5,0,0,1,22.64,8c.81.38,1.59.79,2.4,1.18a185.46,185.46,0,0,1,21.45,11.64,184,184,0,0,1,21.44-11.64c.81-.39,1.59-.8,2.4-1.18a114.09,114.09,0,0,1,20.95-7.57,93.58,93.58,0,0,0-12.94-4.58c-2-14.07-2.74-52.54.7-77,.61-4.33,1.09-7.95,1.46-10.93l12.56,9.49,1.87-1.41-.77,2.25,4.12,3.11A27.6,27.6,0,0,0,199,31L212.18,35l1.95-2.91.17,3.55L222.24,38s-6.49-15.26-17.86-18.37c-5.28-1.45-11-.37-15.71,1.2-4-3.68-13.4-11.29-23.22-11-12.93.33-23.86,15.51-23.86,15.51l9.08-.47,1.11-3.89,1.32,3.77,15-.77c-3.94,4.68-5.6,11.37-5.6,11.37L167.74,33l-.23-2.7,1.62,2.08,8-3.6c-1.25,2.45-2.65,5.2-4.24,8.2-8.17,15.52-9.72,58.74-9.45,76.35-4.51-.4-9.46-.62-14.92-.62a134.77,134.77,0,0,0-18.91,1c-2-12.26-8-34.9-13-45.53l6.34.7.8-2.18.39,2.31,4.44.49s-3.53-6.79-8.56-9l12.26-3.79V53.21l2.12,2.85,7.92-2.45s-13.9-9-25.08-5.28c-5.74,1.93-10.24,6.74-13.28,11-3.61-1.31-7.67-2.08-11.36-1.09C83,60.81,78.13,75.92,78.13,75.92l6.72-2Z" transform="translate(-5.77 -9.76)"/><path class="cls-1" d="M260.89,147.51A100.13,100.13,0,0,0,244,138.83a90.17,90.17,0,0,0-9.69-4,68.09,68.09,0,0,0-29.54-3.43,108.35,108.35,0,0,0-28.57,7.32c-3,1.16-5.85,2.45-8.72,3.8a185.54,185.54,0,0,0-17.93,8.22,1.65,1.65,0,0,0,.78,3.1,1.6,1.6,0,0,0,.79-.2c.14-.08,6.55-3.51,16-7.38,3.49-1.17,7-2.33,10.51-3.36,9.15-2.65,18.4-4.93,27.69-5.79,2.33-.28,4.63-.29,6.95-.43a67,67,0,0,1,6.93.32A85.35,85.35,0,0,1,233,139.24c3.84.95,7.66,2.12,11.45,3.41a96.5,96.5,0,0,1,14.57,7.6,1.65,1.65,0,0,0,1.85-2.74Z" transform="translate(-5.77 -9.76)"/><path class="cls-1" d="M264.18,156.17a93,93,0,0,0-14.7-7.54,95.38,95.38,0,0,0-12.5-5.25,80.33,80.33,0,0,0-30.06-4,122.1,122.1,0,0,0-29.46,6q-6.74,2.2-13.22,5c-8.36,2.89-14,5.37-14.6,5.62a1.65,1.65,0,0,0,.67,3.16,1.58,1.58,0,0,0,.67-.14c.14-.06,5.68-2.5,14-5.39,4.61-1.17,9.2-2.3,13.81-3.32s9.48-2,14.24-2.73a133.25,133.25,0,0,1,14.25-1.67,101.67,101.67,0,0,1,28.29,2.39c4.47,1,8.92,2.28,13.33,3.72a92.69,92.69,0,0,1,13.41,6.86,1.65,1.65,0,1,0,1.83-2.74Z" transform="translate(-5.77 -9.76)"/><path class="cls-1" d="M257.37,140.34a98.16,98.16,0,0,0-25-12c-.34-.12-.66-.27-1-.39a66.19,66.19,0,0,0-14.19-3,59.56,59.56,0,0,0-14.56.52,103,103,0,0,0-24.45,7.21,181.71,181.71,0,0,0-28.56,14.27,1.24,1.24,0,0,0,.67,2.28A1.26,1.26,0,0,0,151,149a181,181,0,0,1,26.19-13.24c8.48-3.12,17.11-5.84,26-7.11a64.22,64.22,0,0,1,27.51,1.89c1.47.38,2.91.87,4.37,1.33A99.59,99.59,0,0,1,256,142.36a1.23,1.23,0,1,0,1.42-2Z" transform="translate(-5.77 -9.76)"/><path class="cls-1" d="M253.81,133.13A81.86,81.86,0,0,0,235.52,125c-2.43-.83-4.9-1.58-7.4-2.2-9-2-18.59-2.61-27.73-.69a111.49,111.49,0,0,0-26.24,8.8c-.8.38-1.59.79-2.39,1.18A180.6,180.6,0,0,0,149.85,144a.83.83,0,0,0,.46,1.51.78.78,0,0,0,.46-.14,179.31,179.31,0,0,1,21.37-11.67c.91-.4,1.81-.81,2.73-1.2,8.43-3.41,17-6.53,25.95-8.07a69.78,69.78,0,0,1,26.86.4,91.44,91.44,0,0,1,9.18,2.34,80,80,0,0,1,16,7.37.82.82,0,0,0,.9-1.38Z" transform="translate(-5.77 -9.76)"/><path class="cls-1" d="M39.72,147.51a100.13,100.13,0,0,1,16.91-8.68,90.17,90.17,0,0,1,9.69-4,68.09,68.09,0,0,1,29.54-3.43,108.35,108.35,0,0,1,28.57,7.32c2.95,1.16,5.85,2.45,8.72,3.8a186.41,186.41,0,0,1,17.94,8.22,1.65,1.65,0,0,1-.79,3.1,1.6,1.6,0,0,1-.79-.2c-.14-.08-6.55-3.51-16-7.38-3.49-1.17-7-2.33-10.51-3.36-9.15-2.65-18.4-4.93-27.69-5.79-2.33-.28-4.63-.29-7-.43a67,67,0,0,0-6.93.32,85.35,85.35,0,0,0-13.83,2.25c-3.84.95-7.65,2.12-11.44,3.41a95.88,95.88,0,0,0-14.57,7.6,1.66,1.66,0,0,1-1.86-2.74Z" transform="translate(-5.77 -9.76)"/><path class="cls-1" d="M36.43,156.17a93.57,93.57,0,0,1,14.7-7.54,95.38,95.38,0,0,1,12.5-5.25,88.25,88.25,0,0,1,14.79-3.44,88.57,88.57,0,0,1,15.27-.59,122.1,122.1,0,0,1,29.46,6c4.49,1.47,8.91,3.15,13.22,5,8.37,2.89,14,5.37,14.6,5.62a1.65,1.65,0,0,1-.67,3.16,1.58,1.58,0,0,1-.67-.14c-.14-.06-5.68-2.5-14-5.39-4.61-1.17-9.2-2.3-13.8-3.32-4.76-1-9.48-2-14.25-2.73a132.66,132.66,0,0,0-14.25-1.67A101.67,101.67,0,0,0,65,148.33c-4.47,1-8.92,2.28-13.33,3.72a93.37,93.37,0,0,0-13.41,6.86,1.65,1.65,0,1,1-1.83-2.74Z" transform="translate(-5.77 -9.76)"/><path class="cls-1" d="M43.24,140.34a98.37,98.37,0,0,1,25-12c.34-.12.66-.27,1-.39a66.19,66.19,0,0,1,14.19-3,59.56,59.56,0,0,1,14.56.52,103,103,0,0,1,24.45,7.21A181.18,181.18,0,0,1,151,146.91a1.24,1.24,0,0,1,.37,1.71,1.22,1.22,0,0,1-1,.57,1.26,1.26,0,0,1-.67-.19,181,181,0,0,0-26.19-13.24c-8.48-3.12-17.11-5.84-25.95-7.11A64.17,64.17,0,0,0,70,130.54c-1.48.38-2.92.87-4.38,1.33a99.91,99.91,0,0,0-21,10.49,1.23,1.23,0,0,1-1.42-2Z" transform="translate(-5.77 -9.76)"/><path class="cls-1" d="M46.8,133.13A82.13,82.13,0,0,1,65.09,125c2.44-.83,4.9-1.58,7.4-2.2,9-2,18.59-2.61,27.73-.69a111.33,111.33,0,0,1,26.24,8.8c.81.38,1.6.79,2.4,1.18A180.91,180.91,0,0,1,150.76,144a.82.82,0,0,1,.23,1.14.84.84,0,0,1-.69.37.78.78,0,0,1-.46-.14,179.31,179.31,0,0,0-21.37-11.67c-.91-.4-1.81-.81-2.72-1.2-8.44-3.41-17-6.53-26-8.07a69.78,69.78,0,0,0-26.86.4,92.14,92.14,0,0,0-9.18,2.34,80,80,0,0,0-16,7.37.82.82,0,1,1-.9-1.38Z" transform="translate(-5.77 -9.76)"/></svg>
